<?xml version="1.0" encoding="UTF-8"?>
<svg id="paper_cup_phone" data-name="Paper Cup Phone" xmlns="http://www.w3.org/2000/svg" viewBox="0 0 176.44 176.44">
  <defs>
    <style>
      .cls-1 {
        stroke: #828282;
      }

      .cls-1, .cls-2 {
        fill: #6058a6;
      }

      .cls-1, .cls-2, .cls-3, .cls-4, .cls-5, .cls-6, .cls-7, .cls-8, .cls-9, .cls-10 {
        stroke-miterlimit: 10;
      }

      .cls-2 {
        stroke: #313181;
      }

      .cls-3 {
        fill: #ef5694;
      }

      .cls-3, .cls-6 {
        stroke: #a12362;
      }

      .cls-4 {
        stroke: #ae4d74;
      }

      .cls-4, .cls-5 {
        fill: #f498ba;
      }

      .cls-11 {
        stroke-width: 0px;
      }

      .cls-11, .cls-6, .cls-7, .cls-8, .cls-10 {
        fill: none;
      }

      .cls-5 {
        stroke: #ad8294;
      }

      .cls-7, .cls-9 {
        stroke: #2c338e;
      }

      .cls-8 {
        stroke: #b05243;
        stroke-width: 7px;
      }

      .cls-9 {
        fill: #373d98;
      }

      .cls-10 {
        stroke: #f4e1ab;
        stroke-width: 5px;
      }
    </style>
  </defs>
  <g id="Layer_2-2" data-name="Layer 2">
    <g>
      <circle class="cls-11" cx="88.22" cy="88.22" r="88.22"/>
      <g>
        <path class="cls-8" d="m68.05,93.2c20.97-14.99,31.37-14.27,46.03-26.68,15.67-13.26,14.64-22.04,11.81-28.16-3.24-7.03-27.5-1.86-35.55,18.55-5.89,14.91,21.97-2.35-16.48-13-18.66-5.16-30.21,25.55,30.15,51.36"/>
        <path class="cls-10" d="m68.05,93.2c20.97-14.99,31.37-14.27,46.03-26.68,15.67-13.26,14.64-22.04,11.81-28.16-3.24-7.03-27.5-1.86-35.55,18.55-5.89,14.91,21.97-2.35-16.48-13-18.66-5.16-30.21,25.55,30.15,51.36"/>
      </g>
      <g>
        <path class="cls-8" d="m91.49,52.19c-2.97-2.78-8.38-5.73-17.63-8.28-18.66-5.16-30.21,25.55,30.15,51.36"/>
        <path class="cls-10" d="m91.49,52.19c-2.97-2.78-8.38-5.73-17.63-8.28-18.66-5.16-30.21,25.55,30.15,51.36"/>
      </g>
      <g>
        <path class="cls-8" d="m68.05,93.2c20.97-14.99,31.37-14.27,46.03-26.68,15.67-13.26,14.64-22.04,11.81-28.16-3.24-7.03-27.5-1.86-35.55,18.55-4.47,11.33,10.53,4.09,1.15-4.71"/>
        <path class="cls-10" d="m68.05,93.2c20.97-14.99,31.37-14.27,46.03-26.68,15.67-13.26,14.64-22.04,11.81-28.16-3.24-7.03-27.5-1.86-35.55,18.55-4.47,11.33,10.53,4.09,1.15-4.71"/>
      </g>
      <g>
        <path class="cls-2" d="m96.39,110.56c-3.27-1.63-2.51-9.8,1.7-18.25,4.21-8.45,10.28-13.97,13.55-12.34l45.79,12.65c-4.22-2.11-12.88,6.68-19.34,19.64-6.46,12.95-8.27,25.16-4.04,27.26l-37.66-28.96Z"/>
        <path class="cls-5" d="m158.98,94.32c-4.6.96-11.61,8.92-17.06,19.85-6.46,12.95-8.27,25.16-4.04,27.26s12.88-6.68,19.34-19.64c6.46-12.95,8.27-25.16,4.04-27.26-.66-.33-1.43-.39-2.28-.21"/>
        <path class="cls-3" d="m158.98,94.32c.85-.18,1.62-.11,2.28.21,4.22,2.11,2.41,14.31-4.04,27.26-6.46,12.95-15.12,21.74-19.34,19.64-.66-.33-1.17-.91-1.54-1.69,4.6-.96,11.61-8.92,17.06-19.85,5.45-10.92,7.59-21.32,5.59-25.57"/>
        <path class="cls-9" d="m137.87,141.43c-4.22-2.11-2.41-14.31,4.04-27.26s15.12-21.74,19.34-19.64l-3.82-1.91c-4.22-2.11-12.88,6.68-19.34,19.64-6.46,12.95-8.27,25.16-4.04,27.26l3.82,1.91Z"/>
        <path class="cls-7" d="m161.26,94.53c4.22,2.11,2.41,14.31-4.04,27.26-6.46,12.95-15.12,21.74-19.34,19.64"/>
      </g>
      <g>
        <path class="cls-4" d="m57.54,79.72c2.88-2.25,9.93,1.96,15.73,9.41,5.8,7.44,8.17,15.3,5.28,17.55l-31.17,35.85c3.72-2.9-.47-14.51-9.36-25.92s-19.13-18.32-22.85-15.41l42.38-21.47Z"/>
        <path class="cls-1" d="m45.19,143.19c1.12-4.56-3.04-14.33-10.54-23.96-8.9-11.41-19.13-18.32-22.85-15.41-3.72,2.9.47,14.51,9.36,25.92,8.9,11.41,19.13,18.32,22.85,15.41.58-.45.97-1.12,1.18-1.96"/>
        <path class="cls-9" d="m45.19,143.19c-.21.84-.6,1.51-1.18,1.96-3.72,2.9-13.95-4-22.85-15.41-8.9-11.41-13.09-23.02-9.36-25.92.58-.45,1.32-.67,2.19-.66-1.12,4.56,3.04,14.33,10.54,23.96s15.96,16.05,20.65,16.08"/>
        <path class="cls-3" d="m11.8,103.82c3.72-2.9,13.95,4,22.85,15.41s13.09,23.02,9.36,25.92l3.37-2.63c3.72-2.9-.47-14.51-9.36-25.92s-19.13-18.32-22.85-15.41l-3.37,2.63Z"/>
        <path class="cls-6" d="m44.01,145.16c-3.72,2.9-13.95-4-22.85-15.41-8.9-11.41-13.09-23.02-9.36-25.92"/>
      </g>
    </g>
  </g>
</svg>